<?xml version="1.0" encoding="utf-8"?>
<!-- Generator: Adobe Illustrator 22.0.1, SVG Export Plug-In . SVG Version: 6.00 Build 0)  -->
<svg version="1.1" id="Layer_1" xmlns="http://www.w3.org/2000/svg" xmlns:xlink="http://www.w3.org/1999/xlink" x="0px" y="0px"
	 viewBox="0 0 511.1 59.5" style="enable-background:new 0 0 511.1 59.5;" xml:space="preserve">
<style type="text/css">
	.st0{fill:#FFFFFF;}
</style>
<g>
	<path class="st0" d="M32.3,43.4l6.3-21.9L34.1,6.9h-4.3V5.5h23.6v1.4h-4.5l11.3,36l9.1-36h-7.7V5.5h15.2v1.4h-5l-14,52.6H51
		L39.8,25.1l-9.9,34.4h-6.6L4.1,6.9H0.5V5.5h24.7v1.4h-5.3L32.3,43.4z"/>
	<path class="st0" d="M78.1,1.7h18.3v27.9c0.8-2.3,2.1-4.2,3.7-5.6c1.7-1.4,4.2-2.1,7.6-2.1c7.9,0,11.8,4.2,11.8,12.7v22.9h4.3v1.4
		h-21.5v-1.4h3.1V32.7c0-3-0.2-5-0.6-5.9c-0.4-0.9-1.1-1.3-2.2-1.3c-1.6,0-3.1,1.1-4.3,3.2c-1.2,2.1-1.9,4.7-1.9,7.8v21h3.3v1.4
		H78.1v-1.4h4.2V3.1h-4.2V1.7z"/>
	<path class="st0" d="M143.2,40.9h2.2V35c0-4.8-0.3-8.1-0.8-9.7c-0.5-1.6-1.6-2.5-3.1-2.5c-0.9,0-1.7,0.2-2.5,0.7
		c-0.7,0.5-1.1,1.1-1.1,2c0,0.8,0.2,1.7,0.5,2.6h1.9c0.4,1.1,0.6,2.3,0.6,3.8c0,1.5-0.6,2.8-1.9,3.9c-1.3,1.1-2.9,1.6-4.8,1.6
		c-4.4,0-6.5-2.1-6.5-6.3c0-6.2,5.3-9.4,15.9-9.4c6,0,10.2,1,12.5,3.1c2.3,2.1,3.5,5.8,3.5,11.3v15.5c0,2.6,0.7,4,2.2,4
		c1.7,0,2.7-2.6,3-7.8l1.1,0.1c-0.2,4.5-1,7.5-2.5,9.2c-1.5,1.7-3.9,2.5-7.2,2.5c-6.1,0-9.6-1.9-10.5-5.6c-0.7,1.9-1.6,3.4-3,4.3
		c-1.3,0.9-3.2,1.4-5.8,1.4c-7.5,0-11.3-3.1-11.3-9.2c0-3.6,1.4-6.1,4.3-7.4C132.9,41.6,137.3,40.9,143.2,40.9z M140.6,55.4
		c0.3,0.8,0.8,1.1,1.6,1.1c0.8,0,1.5-0.6,2.2-1.9c0.7-1.3,1-3.1,1-5.4v-7.1h-0.5c-3.1,0-4.7,2.3-4.7,6.9v1.2
		C140.2,52.9,140.3,54.6,140.6,55.4z"/>
	<path class="st0" d="M169.4,47.9v-24h-4.2v-1.4h4.2v-9.8l14.2-3.5v13.3h9.9v1.4h-9.9v25.7c0,2.4,0.2,4.1,0.7,5.3
		c0.5,1.1,1.5,1.7,3,1.7c1.5,0,2.9-0.8,4-2.3s1.9-3.6,2.2-6.2l1.3,0.2c-0.4,3.5-1.5,6.3-3.4,8.3s-4.8,3.1-9.1,3.1
		c-4.2,0-7.4-0.8-9.7-2.5C170.5,55.4,169.4,52.3,169.4,47.9z"/>
	<path class="st0" d="M213.1,47.9v-24h-4.2v-1.4h4.2v-9.8l14.2-3.5v13.3h9.9v1.4h-9.9v25.7c0,2.4,0.2,4.1,0.7,5.3
		c0.5,1.1,1.5,1.7,3,1.7c1.5,0,2.9-0.8,4-2.3s1.9-3.6,2.2-6.2l1.3,0.2c-0.4,3.5-1.5,6.3-3.4,8.3s-4.8,3.1-9.1,3.1
		c-4.2,0-7.4-0.8-9.7-2.5C214.2,55.4,213.1,52.3,213.1,47.9z"/>
	<path class="st0" d="M244.8,54.7c-3.2-3.2-4.9-7.9-4.9-14c0-6.1,1.7-10.7,5.2-14c3.5-3.3,8.4-4.9,14.7-4.9c6.3,0,11,1.5,14.1,4.5
		c3.1,3,4.6,7.6,4.6,13.8c0,12.9-6.4,19.4-19.3,19.4C252.8,59.6,248,57.9,244.8,54.7z M263.9,43.8v-6.5c0-4.9-0.3-8.5-0.8-10.8
		c-0.5-2.3-1.8-3.4-3.7-3.4c-1.1,0-2,0.3-2.7,1c-0.7,0.6-1.2,1.7-1.5,3.2c-0.5,2.3-0.7,5.8-0.7,10.4v5.9c0,5.5,0.2,8.9,0.5,10
		c0.3,1.1,0.7,2,1,2.7c0.6,1.2,1.6,1.8,3.3,1.8c2,0,3.3-1.1,3.9-3.4C263.7,53.1,263.9,49.5,263.9,43.8z"/>
	<path class="st0" d="M348,31.2c0,10.5-2.9,17.7-8.8,21.9c-5.4,3.8-12.9,5.7-22.4,5.7h-21.5v-1.4h5V6.9h-5V5.5h23.5
		c9.7,0,17.1,2,21.9,6C345.5,15.5,348,22,348,31.2z M315.1,57.3h2.9c5.1,0,8.8-1.8,11-5.4c2.2-3.6,3.3-9.7,3.3-18.2v-4.4
		c0-11.4-2.2-18.3-6.5-20.6c-2.1-1.1-5-1.7-8.8-1.7h-1.8V57.3z"/>
	<path class="st0" d="M377.3,24.7c-1.9,0-3.5,1.2-4.9,3.7c-1.4,2.4-2.1,5.3-2.1,8.7v20.4h5.4v1.4h-23.8v-1.4h4.2V23.9h-4.2v-1.4
		h18.3v7.3c0.7-2.6,1.9-4.6,3.8-6c1.9-1.4,4-2.1,6.4-2.1c2.4,0,4.3,0.7,5.8,2c1.5,1.3,2.2,3.2,2.2,5.7c0,2.5-0.6,4.4-1.7,5.7
		c-1.1,1.3-2.8,2-5.1,2c-2.3,0-4-0.8-5.1-2.3c-1.1-1.5-1.2-3.6-0.4-6.3h2.7C380.1,26,379.6,24.7,377.3,24.7z"/>
	<path class="st0" d="M389.2,22.6h18.7v34.9h4.3v1.4h-22.6v-1.4h4.2V23.9h-4.5V22.6z M400.7,17.3c-2.7,0-4.6-0.7-5.7-2.1
		c-1.1-1.4-1.7-3.1-1.7-5.1c0-2,0.6-3.7,1.9-5c1.2-1.3,3.1-2,5.7-2c2.5,0,4.5,0.6,5.8,1.8c1.3,1.2,2,2.9,2,5.1s-0.6,4-1.9,5.3
		C405.4,16.6,403.4,17.3,400.7,17.3z"/>
	<path class="st0" d="M413.8,22.6h18.3v7c0.8-2.3,2.1-4.2,3.7-5.6c1.7-1.4,4.2-2.1,7.6-2.1c7.9,0,11.8,4.2,11.8,12.7v22.9h4.3v1.4
		H438v-1.4h3.1V32.7c0-3-0.2-5-0.6-5.9c-0.4-0.9-1.1-1.3-2.2-1.3c-1.6,0-3.1,1.1-4.3,3.2c-1.2,2.1-1.9,4.7-1.9,7.8v21h3.3v1.4h-21.6
		v-1.4h4.2V23.9h-4.2V22.6z"/>
	<path class="st0" d="M485.5,58.8v-1.4h3.5l-8.6-17.7l-1.4,0.4v17.3h3.5v1.4h-21.9v-1.4h4.2V3.1h-4.5V1.7h18.7v36.9l1.2-0.5
		l17.1-14.2h-7.2v-1.4h15v1.4h-5.3l-9.1,7.7l13.2,25.8h2.7v1.4H485.5z"/>
</g>
</svg>
