<?xml version="1.0" standalone="no"?>
<!DOCTYPE svg PUBLIC "-//W3C//DTD SVG 20010904//EN"
 "http://www.w3.org/TR/2001/REC-SVG-20010904/DTD/svg10.dtd">
<svg version="1.0" xmlns="http://www.w3.org/2000/svg"
 width="400.000000pt" height="400.000000pt" viewBox="0 0 400.000000 400.000000"
 preserveAspectRatio="xMidYMid meet">
<metadata>
Created by potrace 1.11, written by Peter Selinger 2001-2013
</metadata>
<g transform="translate(0.000000,400.000000) scale(0.100000,-0.100000)"
fill="#000000" stroke="none">
<path d="M1790 3939 c-454 -51 -873 -257 -1190 -585 -155 -161 -253 -300 -351
-499 -326 -665 -245 -1455 210 -2050 69 -90 225 -249 321 -325 403 -321 920
-474 1418 -419 595 64 1115 383 1442 884 233 357 346 829 299 1253 -64 595
-383 1115 -884 1442 -358 233 -838 347 -1265 299z m1116 -768 c52 -24 111 -83
135 -135 15 -33 19 -66 19 -171 0 -116 -3 -135 -24 -180 -13 -27 -41 -66 -62
-86 -22 -21 -218 -170 -436 -333 l-398 -296 0 -455 0 -454 229 -3 c228 -3 230
-3 255 -27 59 -55 56 -154 -5 -205 l-31 -26 -583 0 -583 0 -31 26 c-61 51 -64
150 -5 205 25 24 27 24 255 27 l229 3 0 454 0 455 -397 296 c-219 163 -415
312 -437 333 -21 20 -49 59 -62 86 -21 45 -24 64 -24 180 0 149 12 186 75 250
80 80 14 75 980 75 817 0 862 -1 901 -19z"/>
<path d="M1210 2862 l0 -68 397 -266 398 -265 397 265 398 266 0 68 0 68 -795
0 -795 0 0 -68z"/>
</g>
</svg>
